{"buffers":[{"uri":"7a168657-2aac-44e3-82eb-9d77aa3f3cd2.bin","byteLength":1184248},{"byteLength":3860040,"extensions":{"EXT_meshopt_compression":{"fallback":true}}}],"asset":{"version":"2.0","generator":"gltfpack 0.19"},"extensionsUsed":["KHR_mesh_quantization","EXT_meshopt_compression","KHR_texture_transform"],"extensionsRequired":["KHR_mesh_quantization","EXT_meshopt_compression"],"bufferViews":[{"buffer":1,"byteOffset":0,"byteLength":688212,"byteStride":4,"target":34962,"extensions":{"EXT_meshopt_compression":{"buffer":0,"byteOffset":0,"byteLength":127980,"byteStride":4,"mode":"ATTRIBUTES","filter":"OCTAHEDRAL","count":172053}}},{"buffer":1,"byteOffset":688212,"byteLength":1376424,"byteStride":8,"target":34962,"extensions":{"EXT_meshopt_compression":{"buffer":0,"byteOffset":127980,"byteLength":579024,"byteStride":8,"mode":"ATTRIBUTES","count":172053}}},{"buffer":1,"byteOffset":2064636,"byteLength":688212,"byteStride":4,"target":34962,"extensions":{"EXT_meshopt_compression":{"buffer":0,"byteOffset":707004,"byteLength":384571,"byteStride":4,"mode":"ATTRIBUTES","count":172053}}},{"buffer":1,"byteOffset":2752848,"byteLength":1107192,"target":34963,"extensions":{"EXT_meshopt_compression":{"buffer":0,"byteOffset":1091576,"byteLength":92670,"byteStride":4,"mode":"TRIANGLES","count":276798}}}],"accessors":[{"bufferView":0,"byteOffset":0,"componentType":5120,"count":172053,"type":"VEC3","normalized":true},{"bufferView":1,"byteOffset":0,"componentType":5123,"count":172053,"type":"VEC3","min":[0,0,0],"max":[15413,16383,8505]},{"bufferView":2,"byteOffset":0,"componentType":5123,"count":172053,"type":"VEC2","normalized":true},{"bufferView":3,"byteOffset":0,"componentType":5125,"count":276798,"type":"SCALAR"}],"samplers":[{}],"images":[{"uri":"Torre.jpg"}],"textures":[{"sampler":0,"source":0}],"materials":[{"name":"TorreITL","pbrMetallicRoughness":{"baseColorTexture":{"index":0,"extensions":{"KHR_texture_transform":{"offset":[0.00100000005,0.000999987125],"scale":[15.9715996,15.9716558]}}},"metallicFactor":0.400000006,"roughnessFactor":0.707106769}}],"meshes":[{"primitives":[{"attributes":{"NORMAL":0,"POSITION":1,"TEXCOORD_0":2},"indices":3,"material":0}]}],"nodes":[{"mesh":0,"translation":[-146.558334,-202.402756,218.315613],"scale":[0.0252060108,0.0252060108,0.0252060108]},{"name":"RootNode","translation":[0,0,0],"rotation":[0,0,0,1],"scale":[1,1,1],"children":[2]},{"name":"Torre","translation":[0,0,0],"rotation":[-0.707106769,-0,0,0.707106769],"scale":[1,1,1],"children":[0]}],"scenes":[{"name":"Root Scene","nodes":[1]}],"scene":0}