{"buffers":[{"uri":"cf8c4dcf-617c-4dda-9b6c-d01e75f8cec6.bin","byteLength":1267348},{"byteLength":4159804,"extensions":{"EXT_meshopt_compression":{"fallback":true}}}],"asset":{"version":"2.0","generator":"gltfpack 0.19"},"extensionsUsed":["KHR_mesh_quantization","EXT_meshopt_compression","KHR_texture_transform"],"extensionsRequired":["KHR_mesh_quantization","EXT_meshopt_compression"],"bufferViews":[{"buffer":1,"byteOffset":0,"byteLength":741040,"byteStride":4,"target":34962,"extensions":{"EXT_meshopt_compression":{"buffer":0,"byteOffset":0,"byteLength":136300,"byteStride":4,"mode":"ATTRIBUTES","filter":"OCTAHEDRAL","count":185260}}},{"buffer":1,"byteOffset":741040,"byteLength":1482080,"byteStride":8,"target":34962,"extensions":{"EXT_meshopt_compression":{"buffer":0,"byteOffset":136300,"byteLength":617021,"byteStride":8,"mode":"ATTRIBUTES","count":185260}}},{"buffer":1,"byteOffset":2223120,"byteLength":741040,"byteStride":4,"target":34962,"extensions":{"EXT_meshopt_compression":{"buffer":0,"byteOffset":753324,"byteLength":413919,"byteStride":4,"mode":"ATTRIBUTES","count":185260}}},{"buffer":1,"byteOffset":2964160,"byteLength":1195644,"target":34963,"extensions":{"EXT_meshopt_compression":{"buffer":0,"byteOffset":1167244,"byteLength":100104,"byteStride":4,"mode":"TRIANGLES","count":298911}}}],"accessors":[{"bufferView":0,"byteOffset":0,"componentType":5120,"count":185260,"type":"VEC3","normalized":true},{"bufferView":1,"byteOffset":0,"componentType":5123,"count":185260,"type":"VEC3","min":[0,0,0],"max":[16383,16154,14312]},{"bufferView":2,"byteOffset":0,"componentType":5123,"count":185260,"type":"VEC2","normalized":true},{"bufferView":3,"byteOffset":0,"componentType":5125,"count":298911,"type":"SCALAR"}],"samplers":[{}],"images":[{"uri":"Torre_b.jpg"}],"textures":[{"sampler":0,"source":0}],"materials":[{"name":"Torre_bITL","pbrMetallicRoughness":{"baseColorTexture":{"index":0,"extensions":{"KHR_texture_transform":{"offset":[0.00100000005,0.000999987125],"scale":[15.9716129,15.9716558]}}},"metallicFactor":0.400000006,"roughnessFactor":0.707106769}}],"meshes":[{"primitives":[{"attributes":{"NORMAL":0,"POSITION":1,"TEXCOORD_0":2},"indices":3,"material":0}]}],"nodes":[{"mesh":0,"translation":[-146.558334,-202.402756,36],"scale":[0.0255630873,0.0255630873,0.0255630873]},{"name":"RootNode","translation":[0,0,0],"rotation":[0,0,0,1],"scale":[1,1,1],"children":[2]},{"name":"Torre_b","translation":[0,0,0],"rotation":[-0.707106769,-0,0,0.707106769],"scale":[1,1,1],"children":[0]}],"scenes":[{"name":"Root Scene","nodes":[1]}],"scene":0}